<svg width="11" height="20" viewBox="0 0 11 20" fill="none" xmlns="http://www.w3.org/2000/svg">
<path d="M0.798246 8.70214L0.798385 8.70228L0.791202 8.70902C0.673448 8.81964 0.579194 8.95417 0.514633 9.10426C0.450067 9.25437 0.416667 9.41664 0.416667 9.58081C0.416667 9.74498 0.450068 9.90726 0.514632 10.0574C0.579194 10.2075 0.673448 10.342 0.791202 10.4526L0.791334 10.4525L0.798246 10.4595L8.76898 18.5616L8.76899 18.5616L8.77088 18.5636C8.87838 18.6753 9.00632 18.7638 9.14716 18.8244C9.28768 18.8849 9.43838 18.9164 9.59063 18.9172C9.74287 18.9164 9.89358 18.8849 10.0341 18.8244C10.1749 18.7638 10.3029 18.6753 10.4104 18.5636L10.4116 18.5623C10.6278 18.3408 10.75 18.0402 10.75 17.726C10.75 17.4117 10.6278 17.1112 10.4116 16.8896L3.44125 9.79183L3.27009 9.61754L3.44037 9.44239L10.4112 2.27235L10.4116 2.27198C10.6278 2.05047 10.75 1.74988 10.75 1.43564C10.75 1.1214 10.6278 0.820815 10.4116 0.599302L10.4114 0.599101C10.3035 0.488332 10.1754 0.400662 10.0346 0.34092C9.89376 0.281182 9.74289 0.250488 9.59063 0.250488C9.43836 0.250488 9.28749 0.281182 9.14668 0.34092C9.00586 0.400662 8.87774 0.488332 8.76985 0.599101L8.76985 0.599103L8.76898 0.599991L0.798246 8.70214Z" fill="#161516" stroke="#161516" stroke-width="0.5"/>
</svg>
