<svg width="15" height="15" viewBox="0 0 15 15" fill="none" xmlns="http://www.w3.org/2000/svg">
<path d="M10.2912 10.2496L10.6416 9.88238L9.82802 9.01994L9.47774 9.38715L10.2912 10.2496ZM11.8181 9.72857L13.2876 10.5707L13.8387 9.5022L12.3691 8.66011L11.8181 9.72857ZM13.5705 12.2443L12.4778 13.3896L13.2913 14.252L14.384 13.1068L13.5705 12.2443ZM11.812 13.7583C10.6968 13.8678 7.81148 13.7702 4.68753 10.4959L3.87402 11.3584C7.28305 14.9314 10.5277 15.1059 11.9191 14.9692L11.812 13.7583ZM4.68753 10.4959C1.70976 7.37484 1.2165 4.74976 1.15509 3.61092L0.00319112 3.67993C0.0804625 5.11328 0.691242 8.02242 3.87402 11.3584L4.68753 10.4959ZM5.74539 5.48496L5.96599 5.25373C5.96599 5.25373 5.4702 4.72811 5.15251 4.39131C4.93191 4.62253 4.93191 4.62253 4.93191 4.62253L5.74539 5.48496ZM6.1416 2.30632L5.1717 0.940615L4.24809 1.66947L5.21797 3.03518L6.1416 2.30632ZM1.90962 0.643361L0.702318 1.90876L1.51583 2.77119L2.72313 1.50579L1.90962 0.643361ZM5.33865 5.05375C4.93191 4.62253 4.9308 4.62369 4.9308 4.62369L4.92968 4.62488L4.92738 4.62733C4.92582 4.629 4.92421 4.63075 4.92255 4.63256C4.91921 4.6362 4.91569 4.64014 4.91198 4.64439C4.90456 4.65288 4.89642 4.6626 4.88769 4.67357C4.87026 4.6955 4.8505 4.72251 4.82973 4.75482C4.78809 4.81959 4.74273 4.90523 4.70423 5.01294C4.62567 5.23271 4.58356 5.52241 4.63636 5.88115C4.73961 6.58271 5.19797 7.50943 6.37212 8.74005L7.1856 7.87761C6.08683 6.72595 5.82508 6.0251 5.77647 5.6947C5.75332 5.53746 5.77731 5.46007 5.78393 5.44175C5.78793 5.43041 5.78985 5.42925 5.78493 5.43699C5.78247 5.44078 5.77839 5.44671 5.77201 5.45469C5.76885 5.45869 5.76508 5.46322 5.7607 5.46826C5.75847 5.47078 5.75616 5.47343 5.75355 5.47621C5.75232 5.47761 5.75101 5.47903 5.74962 5.48049L5.74755 5.4827L5.74647 5.48383C5.74647 5.48383 5.74539 5.48496 5.33865 5.05375ZM6.37212 8.74005C7.54665 9.97108 8.42989 10.4502 9.09654 10.558C9.4372 10.6131 9.71188 10.5691 9.92025 10.4873C10.0224 10.4472 10.1038 10.3999 10.1653 10.3565C10.1961 10.3347 10.2218 10.3141 10.2426 10.2958C10.2531 10.2867 10.2623 10.2782 10.2704 10.2704C10.2745 10.2665 10.2782 10.2629 10.2817 10.2594C10.2835 10.2576 10.2851 10.2559 10.2867 10.2543L10.289 10.2519L10.2901 10.2507C10.2901 10.2507 10.2912 10.2496 9.88448 9.81833C9.47774 9.38715 9.47882 9.38601 9.47882 9.38601L9.47989 9.38488L9.48197 9.38269C9.48343 9.38131 9.48474 9.37993 9.48605 9.37855C9.48874 9.37588 9.49128 9.37345 9.49366 9.37109C9.49843 9.36655 9.50274 9.36258 9.50658 9.35934C9.51412 9.35269 9.51974 9.34847 9.5232 9.34596C9.53035 9.34093 9.52889 9.3432 9.51751 9.34766C9.49866 9.35504 9.42321 9.38042 9.27152 9.35585C8.95362 9.30453 8.28406 9.02886 7.1856 7.87761L6.37212 8.74005ZM5.1717 0.940615C4.38768 -0.163357 2.84596 -0.338042 1.90962 0.643361L2.72313 1.50579C3.13208 1.07714 3.8584 1.12077 4.24809 1.66947L5.1717 0.940615ZM1.15509 3.61092C1.13996 3.3303 1.26206 3.03716 1.51583 2.77119L0.702318 1.90876C0.289024 2.34194 -0.0358907 2.95515 0.00319112 3.67993L1.15509 3.61092ZM12.4778 13.3896C12.2665 13.6112 12.0399 13.7359 11.812 13.7583L11.9191 14.9692C12.4841 14.9137 12.9471 14.6128 13.2913 14.252L12.4778 13.3896ZM5.96599 5.25373C6.72325 4.46003 6.77955 3.20459 6.1416 2.30632L5.21797 3.03518C5.52833 3.47219 5.48218 4.04577 5.15251 4.39131C5.4702 4.72811 5.96599 5.25373 5.96599 5.25373ZM13.2876 10.5707C13.9167 10.9311 14.0146 11.7788 13.5705 12.2443L14.384 13.1068C15.4149 12.0262 15.097 10.2232 13.8387 9.5022L13.2876 10.5707ZM10.6416 9.88238C10.9369 9.57282 11.4124 9.49612 11.8181 9.72857L12.3691 8.66011C11.5357 8.18247 10.5013 8.31439 9.82802 9.01994L10.6416 9.88238Z" fill="#005BBE"/>
</svg>
