<svg width="22" height="22" viewBox="0 0 22 22" fill="none" xmlns="http://www.w3.org/2000/svg">
<mask id="path-1-outside-1_122_318" maskUnits="userSpaceOnUse" x="0" y="-1" width="23" height="23" fill="black">
<rect fill="white" y="-1" width="23" height="23"/>
<path d="M14.7216 14.6661L15.1888 14.1765L14.104 13.0266L13.637 13.5162L14.7216 14.6661ZM16.7575 13.9714L18.7168 15.0942L19.4515 13.6696L17.4922 12.5468L16.7575 13.9714ZM19.094 17.3257L17.6371 18.8527L18.7217 20.0027L20.1787 18.4757L19.094 17.3257ZM16.7494 19.3444C15.2624 19.4905 11.4153 19.3603 7.25004 14.9945L6.16536 16.1445C10.7107 20.9086 15.0369 21.1412 16.8921 20.959L16.7494 19.3444ZM7.25004 14.9945C3.27968 10.8331 2.62199 7.33302 2.54012 5.81456L1.00425 5.90657C1.10728 7.8177 1.92166 11.6966 6.16536 16.1445L7.25004 14.9945ZM8.66052 8.31328L8.95466 8.00497C8.95466 8.00497 8.2936 7.30414 7.87002 6.85508C7.57587 7.16338 7.57587 7.16338 7.57587 7.16338L8.66052 8.31328ZM9.18879 4.07509L7.8956 2.25415L6.66411 3.22596L7.95729 5.04691L9.18879 4.07509ZM3.54615 1.85781L1.93642 3.54501L3.0211 4.69492L4.63083 3.00772L3.54615 1.85781ZM8.1182 7.73833C7.57587 7.16338 7.5744 7.16492 7.5744 7.16492L7.57291 7.1665L7.56984 7.16977C7.56776 7.172 7.56561 7.17433 7.56339 7.17675C7.55895 7.1816 7.55426 7.18686 7.54931 7.19252C7.53941 7.20384 7.52855 7.21679 7.51692 7.23142C7.49367 7.26066 7.46733 7.29667 7.43964 7.33975C7.38412 7.42612 7.32364 7.54031 7.27231 7.68392C7.16756 7.97694 7.11141 8.36321 7.18181 8.84153C7.31948 9.77695 7.93063 11.0126 9.49616 12.6534L10.5808 11.5035C9.11577 9.96793 8.76677 9.03346 8.70196 8.59293C8.67109 8.38328 8.70308 8.28009 8.7119 8.25566C8.71724 8.24055 8.7198 8.239 8.71324 8.24932C8.70996 8.25437 8.70452 8.26228 8.69601 8.27292C8.6918 8.27825 8.68678 8.28429 8.68093 8.29101C8.67796 8.29437 8.67488 8.29791 8.67139 8.30162C8.66975 8.30348 8.66801 8.30537 8.66616 8.30731L8.6634 8.31026L8.66196 8.31177C8.66196 8.31177 8.66052 8.31328 8.1182 7.73833ZM9.49616 12.6534C11.0622 14.2948 12.2399 14.9336 13.1287 15.0774C13.5829 15.1508 13.9492 15.0922 14.227 14.9831C14.3632 14.9296 14.4717 14.8666 14.5537 14.8086C14.5948 14.7796 14.629 14.7521 14.6568 14.7277C14.6708 14.7156 14.6831 14.7043 14.6938 14.6939C14.6993 14.6887 14.7043 14.6839 14.7089 14.6792C14.7113 14.6768 14.7134 14.6746 14.7156 14.6724L14.7187 14.6691L14.7202 14.6676C14.7202 14.6676 14.7216 14.6661 14.1793 14.0911C13.637 13.5162 13.6384 13.5147 13.6384 13.5147L13.6399 13.5132L13.6426 13.5103C13.6446 13.5084 13.6463 13.5066 13.6481 13.5047C13.6517 13.5012 13.655 13.4979 13.6582 13.4948C13.6646 13.4887 13.6703 13.4834 13.6754 13.4791C13.6855 13.4703 13.693 13.4646 13.6976 13.4613C13.7071 13.4546 13.7052 13.4576 13.69 13.4635C13.6649 13.4734 13.5643 13.5072 13.362 13.4745C12.9382 13.406 12.0454 13.0385 10.5808 11.5035L9.49616 12.6534ZM7.8956 2.25415C6.85023 0.782191 4.79461 0.549277 3.54615 1.85781L4.63083 3.00772C5.17611 2.43619 6.14453 2.49436 6.66411 3.22596L7.8956 2.25415ZM2.54012 5.81456C2.51995 5.44039 2.68275 5.04955 3.0211 4.69492L1.93642 3.54501C1.38537 4.12259 0.952146 4.9402 1.00425 5.90657L2.54012 5.81456ZM17.6371 18.8527C17.3553 19.1482 17.0532 19.3146 16.7494 19.3444L16.8921 20.959C17.6455 20.8849 18.2628 20.4837 18.7217 20.0027L17.6371 18.8527ZM8.95466 8.00497C9.96433 6.9467 10.0394 5.27279 9.18879 4.07509L7.95729 5.04691C8.37111 5.62958 8.30958 6.39437 7.87002 6.85508C8.2936 7.30414 8.95466 8.00497 8.95466 8.00497ZM18.7168 15.0942C19.5555 15.5749 19.6862 16.705 19.094 17.3257L20.1787 18.4757C21.5532 17.0349 21.1294 14.631 19.4515 13.6696L18.7168 15.0942ZM15.1888 14.1765C15.5826 13.7638 16.2165 13.6615 16.7575 13.9714L17.4922 12.5468C16.3809 11.91 15.0017 12.0858 14.104 13.0266L15.1888 14.1765Z"/>
</mask>
<path d="M14.7216 14.6661L15.1888 14.1765L14.104 13.0266L13.637 13.5162L14.7216 14.6661ZM16.7575 13.9714L18.7168 15.0942L19.4515 13.6696L17.4922 12.5468L16.7575 13.9714ZM19.094 17.3257L17.6371 18.8527L18.7217 20.0027L20.1787 18.4757L19.094 17.3257ZM16.7494 19.3444C15.2624 19.4905 11.4153 19.3603 7.25004 14.9945L6.16536 16.1445C10.7107 20.9086 15.0369 21.1412 16.8921 20.959L16.7494 19.3444ZM7.25004 14.9945C3.27968 10.8331 2.62199 7.33302 2.54012 5.81456L1.00425 5.90657C1.10728 7.8177 1.92166 11.6966 6.16536 16.1445L7.25004 14.9945ZM8.66052 8.31328L8.95466 8.00497C8.95466 8.00497 8.2936 7.30414 7.87002 6.85508C7.57587 7.16338 7.57587 7.16338 7.57587 7.16338L8.66052 8.31328ZM9.18879 4.07509L7.8956 2.25415L6.66411 3.22596L7.95729 5.04691L9.18879 4.07509ZM3.54615 1.85781L1.93642 3.54501L3.0211 4.69492L4.63083 3.00772L3.54615 1.85781ZM8.1182 7.73833C7.57587 7.16338 7.5744 7.16492 7.5744 7.16492L7.57291 7.1665L7.56984 7.16977C7.56776 7.172 7.56561 7.17433 7.56339 7.17675C7.55895 7.1816 7.55426 7.18686 7.54931 7.19252C7.53941 7.20384 7.52855 7.21679 7.51692 7.23142C7.49367 7.26066 7.46733 7.29667 7.43964 7.33975C7.38412 7.42612 7.32364 7.54031 7.27231 7.68392C7.16756 7.97694 7.11141 8.36321 7.18181 8.84153C7.31948 9.77695 7.93063 11.0126 9.49616 12.6534L10.5808 11.5035C9.11577 9.96793 8.76677 9.03346 8.70196 8.59293C8.67109 8.38328 8.70308 8.28009 8.7119 8.25566C8.71724 8.24055 8.7198 8.239 8.71324 8.24932C8.70996 8.25437 8.70452 8.26228 8.69601 8.27292C8.6918 8.27825 8.68678 8.28429 8.68093 8.29101C8.67796 8.29437 8.67488 8.29791 8.67139 8.30162C8.66975 8.30348 8.66801 8.30537 8.66616 8.30731L8.6634 8.31026L8.66196 8.31177C8.66196 8.31177 8.66052 8.31328 8.1182 7.73833ZM9.49616 12.6534C11.0622 14.2948 12.2399 14.9336 13.1287 15.0774C13.5829 15.1508 13.9492 15.0922 14.227 14.9831C14.3632 14.9296 14.4717 14.8666 14.5537 14.8086C14.5948 14.7796 14.629 14.7521 14.6568 14.7277C14.6708 14.7156 14.6831 14.7043 14.6938 14.6939C14.6993 14.6887 14.7043 14.6839 14.7089 14.6792C14.7113 14.6768 14.7134 14.6746 14.7156 14.6724L14.7187 14.6691L14.7202 14.6676C14.7202 14.6676 14.7216 14.6661 14.1793 14.0911C13.637 13.5162 13.6384 13.5147 13.6384 13.5147L13.6399 13.5132L13.6426 13.5103C13.6446 13.5084 13.6463 13.5066 13.6481 13.5047C13.6517 13.5012 13.655 13.4979 13.6582 13.4948C13.6646 13.4887 13.6703 13.4834 13.6754 13.4791C13.6855 13.4703 13.693 13.4646 13.6976 13.4613C13.7071 13.4546 13.7052 13.4576 13.69 13.4635C13.6649 13.4734 13.5643 13.5072 13.362 13.4745C12.9382 13.406 12.0454 13.0385 10.5808 11.5035L9.49616 12.6534ZM7.8956 2.25415C6.85023 0.782191 4.79461 0.549277 3.54615 1.85781L4.63083 3.00772C5.17611 2.43619 6.14453 2.49436 6.66411 3.22596L7.8956 2.25415ZM2.54012 5.81456C2.51995 5.44039 2.68275 5.04955 3.0211 4.69492L1.93642 3.54501C1.38537 4.12259 0.952146 4.9402 1.00425 5.90657L2.54012 5.81456ZM17.6371 18.8527C17.3553 19.1482 17.0532 19.3146 16.7494 19.3444L16.8921 20.959C17.6455 20.8849 18.2628 20.4837 18.7217 20.0027L17.6371 18.8527ZM8.95466 8.00497C9.96433 6.9467 10.0394 5.27279 9.18879 4.07509L7.95729 5.04691C8.37111 5.62958 8.30958 6.39437 7.87002 6.85508C8.2936 7.30414 8.95466 8.00497 8.95466 8.00497ZM18.7168 15.0942C19.5555 15.5749 19.6862 16.705 19.094 17.3257L20.1787 18.4757C21.5532 17.0349 21.1294 14.631 19.4515 13.6696L18.7168 15.0942ZM15.1888 14.1765C15.5826 13.7638 16.2165 13.6615 16.7575 13.9714L17.4922 12.5468C16.3809 11.91 15.0017 12.0858 14.104 13.0266L15.1888 14.1765Z" fill="white"/>
<path d="M20.1787 18.4757L19.815 18.8188L20.5424 18.1326L20.1787 18.4757ZM17.6371 18.8527L18.0008 18.5096L17.2734 19.1958L17.6371 18.8527ZM7.25004 14.9945L7.61378 15.3376L6.88632 14.6515L7.25004 14.9945ZM1.00425 5.90657L0.974355 5.40746L1.03415 6.40567L1.00425 5.90657ZM10.5808 11.5035L10.9445 11.8466L10.2171 11.1604L10.5808 11.5035ZM14.543 13.748L14.0007 13.1731L13.2733 13.8593L13.8156 14.4342L14.543 13.748ZM14.2827 13.9447L14.8251 14.5196L15.5525 13.8334L15.0102 13.2585L14.2827 13.9447ZM16.6805 13.0299L16.3131 13.7423L17.2019 14.2006L17.5692 13.4883L16.6805 13.0299ZM18.6398 14.1527L18.2724 14.865L19.1612 15.3234L19.5286 14.6111L18.6398 14.1527ZM19.2726 18.2439L19.815 18.8188L20.5424 18.1326L20.0001 17.5577L19.2726 18.2439ZM18.5431 19.0846L18.0008 18.5096L17.2734 19.1958L17.8157 19.7708L18.5431 19.0846ZM16.3227 20.1957L16.3941 21.003L17.3902 20.9149L17.3188 20.1076L16.3227 20.1957ZM7.07144 15.9126L7.61378 15.3376L6.8863 14.6515L6.34396 15.2265L7.07144 15.9126ZM1.74229 5.36147L0.974359 5.40746L1.03415 6.40567L1.80209 6.35968L1.74229 5.36147ZM8.04861 7.7731L8.59093 8.34805L9.31838 7.66189L8.77606 7.08694L8.04861 7.7731ZM8.88278 4.9535L9.49853 4.4676L8.87906 3.68258L8.26331 4.16849L8.88278 4.9535ZM6.97013 2.34755L6.35438 2.83345L6.97385 3.61847L7.5896 3.13256L6.97013 2.34755ZM3.72478 2.77585L4.26712 3.3508L4.99455 2.66463L4.45221 2.08968L3.72478 2.77585ZM2.84248 3.77688L2.30014 3.20193L1.57271 3.8881L2.11505 4.46305L2.84248 3.77688ZM10.4022 12.4215L10.9445 11.8466L10.2171 11.1604L9.67476 11.7353L10.4022 12.4215ZM15.5525 13.8334L14.4677 12.6835L13.7403 13.3697L14.8251 14.5196L15.5525 13.8334ZM19.1612 15.3234L19.8959 13.8988L19.0072 13.4404L18.2724 14.865L19.1612 15.3234ZM17.0478 12.3176L16.3131 13.7423L17.2019 14.2006L17.9366 12.776L17.0478 12.3176ZM17.2734 19.1958L18.358 20.3457L19.0855 19.6596L18.0008 18.5097L17.2734 19.1958ZM20.5424 18.1326L19.4578 16.9827L18.7303 17.6688L19.8149 18.8188L20.5424 18.1326ZM6.88632 14.6515L5.80164 15.8014L6.52908 16.4876L7.61376 15.3376L6.88632 14.6515ZM17.3902 20.9149L17.2474 19.3004L16.2513 19.3884L16.3941 21.003L17.3902 20.9149ZM2.51022 5.31546L0.974355 5.40746L1.03415 6.40567L2.57002 6.31367L2.51022 5.31546ZM8.95466 8.00497C9.31838 7.66189 9.31838 7.66189 9.31837 7.66188C9.31837 7.66188 9.31836 7.66187 9.31835 7.66186C9.31834 7.66185 9.31828 7.66179 9.31826 7.66176C9.31816 7.66166 9.31808 7.66157 9.3179 7.66138C9.31756 7.66103 9.31712 7.66055 9.31647 7.65987C9.31521 7.65853 9.31332 7.65652 9.31085 7.65391C9.30591 7.64867 9.2986 7.64092 9.28915 7.6309C9.27024 7.61086 9.24277 7.58173 9.20847 7.54537C9.13988 7.47265 9.04401 7.37101 8.9349 7.25534C8.71669 7.024 8.44553 6.73653 8.23374 6.512L7.50629 7.19816C7.71808 7.42269 7.98924 7.71017 8.20746 7.94151C8.31656 8.05718 8.41243 8.15881 8.48102 8.23153C8.51532 8.2679 8.5428 8.29702 8.5617 8.31706C8.57116 8.32709 8.57846 8.33483 8.58341 8.34008C8.58588 8.3427 8.58776 8.34469 8.58902 8.34603C8.58966 8.3467 8.59013 8.3472 8.59045 8.34755C8.5906 8.3477 8.59074 8.34786 8.59081 8.34793C8.59092 8.34804 8.59082 8.34793 8.5909 8.34802C8.59091 8.34803 8.59092 8.34804 8.59093 8.34805C8.59093 8.34805 8.59093 8.34806 8.95466 8.00497ZM7.58587 1.86165L6.35437 2.83345L6.97385 3.61847L8.20534 2.64666L7.58587 1.86165ZM8.26703 5.43942L9.49853 4.4676L8.87905 3.68258L7.64755 4.6544L8.26703 5.43942ZM1.57271 3.8881L2.65739 5.038L3.38482 4.35183L2.30014 3.20193L1.57271 3.8881ZM4.99455 2.66463L3.90987 1.51473L3.18244 2.2009L4.26712 3.3508L4.99455 2.66463ZM9.85988 12.9965L10.9445 11.8466L10.2171 11.1604L9.13243 12.3103L9.85988 12.9965ZM14.1793 14.0911L14.9068 13.405L14.9067 13.4049L14.1793 14.0911ZM13.637 13.5162L12.9134 12.826L12.2587 13.5123L12.9095 14.2024L13.637 13.5162ZM15.1888 14.1765L14.4653 13.4862L14.4653 13.4862L15.1888 14.1765ZM16.7575 13.9714L17.2547 13.1038L17.2546 13.1037L16.7575 13.9714ZM18.7168 15.0942L19.214 14.2266L19.214 14.2266L18.7168 15.0942ZM20.1787 18.4757L20.9022 19.166L20.9022 19.166L20.1787 18.4757ZM17.6371 18.8527L16.9136 18.1624L16.9135 18.1625L17.6371 18.8527ZM16.8921 20.959L16.9899 21.9542L16.99 21.9542L16.8921 20.959ZM7.25004 14.9945L7.97357 14.3043L7.97356 14.3042L7.25004 14.9945ZM1.00425 5.90657L2.0028 5.85274L2.0028 5.85273L1.00425 5.90657ZM8.95466 8.00497L8.23113 7.31468L8.23111 7.31469L8.95466 8.00497ZM9.18879 4.07509L8.37348 4.65411L8.37349 4.65412L9.18879 4.07509ZM6.66411 3.22596L7.47943 2.64695L7.47942 2.64693L6.66411 3.22596ZM4.63083 3.00772L5.35436 3.69802L5.35436 3.69801L4.63083 3.00772ZM1.93642 3.54501L2.65995 4.23532H2.65995L1.93642 3.54501ZM10.5808 11.5035L9.85727 12.1938L9.8573 12.1938L10.5808 11.5035ZM14.7216 14.6661L13.9942 15.3523L14.7175 16.1191L15.4451 15.3564L14.7216 14.6661ZM14.104 13.0266L13.3806 12.3362L13.3804 12.3364L14.104 13.0266ZM19.4515 13.6696L18.9544 14.5372L18.9544 14.5373L19.4515 13.6696ZM17.4922 12.5468L16.995 13.4144L16.995 13.4144L17.4922 12.5468ZM19.094 17.3257L19.8175 18.0161L19.8176 18.016L19.094 17.3257ZM18.7217 20.0027L17.9982 19.3124L17.9982 19.3124L18.7217 20.0027ZM16.7494 19.3444L16.8471 20.3396H16.8471L16.7494 19.3444ZM6.16536 16.1445L6.88888 15.4542L6.88888 15.4542L6.16536 16.1445ZM2.54012 5.81456L1.54157 5.8684L1.54157 5.8684L2.54012 5.81456ZM8.66052 8.31328L7.93308 8.99945L8.6564 9.76629L9.38407 9.00356L8.66052 8.31328ZM7.87002 6.85508L8.59354 7.54539L8.59354 7.54538L7.87002 6.85508ZM7.57587 7.16338L8.30332 6.47721L8.00729 6.16338H7.57587V7.16338ZM7.8956 2.25415L8.71092 1.67513L8.71091 1.67513L7.8956 2.25415ZM7.95729 5.04691L7.14197 5.62592L7.14199 5.62594L7.95729 5.04691ZM3.54615 1.85781L2.82263 1.16751L3.54615 1.85781ZM3.0211 4.69492L3.74462 5.38523L3.74463 5.38522L3.0211 4.69492ZM8.1182 7.73833L8.84565 7.05217L8.84565 7.05216L8.1182 7.73833ZM7.5744 7.16492L6.85124 6.4742L6.84645 6.47929L7.5744 7.16492ZM7.57291 7.1665L6.84496 6.48087L6.84412 6.48177L7.57291 7.1665ZM7.56984 7.16977L6.84104 6.48502L6.83769 6.48862L7.56984 7.16977ZM7.56339 7.17675L8.30121 7.85175L8.30124 7.85172L7.56339 7.17675ZM7.54931 7.19252L8.30212 7.85076L8.30277 7.85002L7.54931 7.19252ZM7.51692 7.23142L6.73419 6.60906L6.73417 6.60909L7.51692 7.23142ZM7.43964 7.33975L8.28085 7.88046L8.28085 7.88045L7.43964 7.33975ZM7.27231 7.68392L8.21396 8.02051L8.21396 8.02049L7.27231 7.68392ZM7.18181 8.84153L6.19247 8.98713L6.19247 8.98714L7.18181 8.84153ZM9.49616 12.6534L10.2197 11.9631L10.2197 11.9631L9.49616 12.6534ZM8.70196 8.59293L9.69131 8.44737L9.69129 8.44726L8.70196 8.59293ZM8.7119 8.25566L9.65252 8.59522L9.65492 8.58842L8.7119 8.25566ZM8.71324 8.24932L9.55171 8.79437L9.55713 8.78584L8.71324 8.24932ZM8.69601 8.27292L7.91489 7.64851L7.91093 7.65353L8.69601 8.27292ZM8.68093 8.29101L9.42996 8.95361L9.43562 8.9471L8.68093 8.29101ZM8.67139 8.30162L7.9429 7.61656L7.93207 7.62808L7.9216 7.63994L8.67139 8.30162ZM8.66616 8.30731L7.94067 7.61906L7.93701 7.62297L8.66616 8.30731ZM8.6634 8.31026L9.38646 9.0011L9.39255 8.99461L8.6634 8.31026ZM8.66196 8.31177L7.93892 7.62095L7.93642 7.62359L8.66196 8.31177ZM13.1287 15.0774L12.969 16.0645L12.9692 16.0646L13.1287 15.0774ZM14.227 14.9831L14.5925 15.9139L14.5927 15.9138L14.227 14.9831ZM14.5537 14.8086L13.9769 13.9918L14.5537 14.8086ZM14.6568 14.7277L14.0013 13.9726L13.9982 13.9752L14.6568 14.7277ZM14.6938 14.6939L14.0033 13.9706L13.9999 13.9739L14.6938 14.6939ZM14.7089 14.6792L15.4186 15.3837L15.4189 15.3834L14.7089 14.6792ZM14.7156 14.6724L15.4241 15.3781L15.4327 15.3695L15.441 15.3606L14.7156 14.6724ZM14.7187 14.6691L14.017 13.9567L14.0049 13.9686L13.9932 13.9809L14.7187 14.6691ZM14.7202 14.6676L15.4219 15.3801L15.4337 15.3685L15.4452 15.3564L14.7202 14.6676ZM13.6384 13.5147L12.913 12.8264L12.9127 12.8267L13.6384 13.5147ZM13.6399 13.5132L14.3653 14.2015L14.3653 14.2014L13.6399 13.5132ZM13.6426 13.5103L12.9565 12.7828L12.9363 12.8018L12.9172 12.822L13.6426 13.5103ZM13.6481 13.5047L12.9431 12.7955L12.9327 12.8058L12.9226 12.8165L13.6481 13.5047ZM13.6582 13.4948L12.9687 12.7706L12.9623 12.7766L12.9561 12.7828L13.6582 13.4948ZM13.6754 13.4791L14.3201 14.2436L14.3286 14.2364L14.3369 14.2291L13.6754 13.4791ZM13.6976 13.4613L13.1226 12.6431L13.1163 12.6476L13.11 12.6521L13.6976 13.4613ZM13.69 13.4635L14.0546 14.3947L14.0548 14.3947L13.69 13.4635ZM13.362 13.4745L13.5219 12.4873L13.5214 12.4873L13.362 13.4745ZM15.4451 15.3564L15.9123 14.8668L14.4653 13.4862L13.9981 13.9758L15.4451 15.3564ZM13.3804 12.3364L12.9134 12.826L14.3606 14.2064L14.8276 13.7168L13.3804 12.3364ZM12.9095 14.2024L13.9942 15.3523L15.4491 13.98L14.3644 12.83L12.9095 14.2024ZM16.2603 14.8391L18.2196 15.9619L19.214 14.2266L17.2547 13.1038L16.2603 14.8391ZM19.9487 12.802L17.9894 11.6792L16.995 13.4144L18.9544 14.5372L19.9487 12.802ZM18.3705 16.6354L16.9136 18.1624L18.3606 19.5431L19.8175 18.0161L18.3705 16.6354ZM19.4453 20.693L20.9022 19.166L19.4552 17.7854L17.9982 19.3124L19.4453 20.693ZM16.6516 18.3492C15.4225 18.4699 11.8952 18.4146 7.97357 14.3043L6.52652 15.6848C10.9354 20.306 15.1023 20.511 16.8471 20.3396L16.6516 18.3492ZM5.44184 16.8348C10.2312 21.8546 14.8773 22.1617 16.9899 21.9542L16.7944 19.9638C15.1965 20.1208 11.1903 19.9626 6.88888 15.4542L5.44184 16.8348ZM7.97356 14.3042C4.17508 10.323 3.60828 7.05169 3.53867 5.76072L1.54157 5.8684C1.63571 7.61434 2.38428 11.3433 6.52652 15.6848L7.97356 14.3042ZM0.00570476 5.9604C0.120996 8.099 1.02624 12.2067 5.44184 16.8348L6.88888 15.4542C2.81707 11.1864 2.09357 7.5364 2.0028 5.85274L0.00570476 5.9604ZM9.38407 9.00356L9.6782 8.69525L8.23111 7.31469L7.93698 7.623L9.38407 9.00356ZM7.1465 6.16478C6.99943 6.31893 6.92589 6.396 6.88912 6.43454C6.87074 6.45381 6.86154 6.46344 6.85695 6.46826C6.85465 6.47067 6.8535 6.47187 6.85292 6.47248C6.85263 6.47278 6.85249 6.47293 6.85241 6.47301C6.85238 6.47305 6.85235 6.47308 6.85234 6.47309C6.85233 6.4731 6.85232 6.47312 6.8523 6.47313C6.85229 6.47314 6.85227 6.47316 6.85224 6.47319C6.85223 6.4732 6.85219 6.47325 6.85213 6.47331C6.85207 6.47337 6.85195 6.47349 6.8519 6.47355C6.65668 7.55719 7.57587 8.16338 7.57587 7.16338C7.57587 6.16338 8.49507 6.76957 8.29985 7.8532C8.29979 7.85326 8.29968 7.85338 8.29962 7.85344C8.29956 7.85351 8.29952 7.85355 8.29951 7.85356C8.29948 7.85359 8.29945 7.85362 8.29945 7.85362C8.29944 7.85363 8.29944 7.85364 8.29943 7.85364C8.29943 7.85364 8.29943 7.85364 8.29943 7.85364C8.29943 7.85364 8.29943 7.85364 8.29943 7.85364C8.29943 7.85364 8.29943 7.85364 8.29943 7.85364C8.29944 7.85364 8.29944 7.85364 8.29944 7.85363C8.29945 7.85362 8.29946 7.85361 8.29948 7.85359C8.29955 7.85352 8.29969 7.85337 8.29997 7.85307C8.30055 7.85247 8.30169 7.85127 8.30399 7.84886C8.30859 7.84405 8.31778 7.83441 8.33616 7.81514C8.37293 7.77661 8.44647 7.69953 8.59354 7.54539L7.1465 6.16478ZM6.84843 7.84954L7.93308 8.99945L9.38797 7.62712L8.30332 6.47721L6.84843 7.84954ZM10.0041 3.49607L8.71092 1.67513L7.08029 2.83317L8.37348 4.65411L10.0041 3.49607ZM5.84879 3.80497L7.14197 5.62592L8.77261 4.4679L7.47943 2.64695L5.84879 3.80497ZM2.82263 1.16751L1.2129 2.85471L2.65995 4.23532L4.26968 2.54811L2.82263 1.16751ZM3.74463 5.38522L5.35436 3.69802L3.90731 2.31742L2.29758 4.00462L3.74463 5.38522ZM8.84565 7.05216C8.57421 6.76439 8.43674 6.61944 8.36665 6.54593C8.33202 6.50961 8.31185 6.48865 8.29932 6.47579C8.2939 6.47023 8.28557 6.46172 8.27647 6.45277C8.27363 6.44998 8.26078 6.43732 8.24395 6.42215C8.23901 6.41769 8.21302 6.39411 8.17743 6.36721C8.166 6.35857 8.11274 6.3179 8.03719 6.27845C8.0063 6.26233 7.90756 6.2116 7.76944 6.18413C7.69761 6.16984 7.56933 6.1523 7.41195 6.17821C7.32109 6.19754 7.18293 6.24473 7.13455 6.26685C6.98373 6.35801 6.85126 6.47422 7.5744 7.16492C8.29753 7.85563 8.16506 7.97184 8.01425 8.06299C7.96587 8.08511 7.8277 8.13231 7.73684 8.15164C7.57946 8.17755 7.45119 8.16 7.37936 8.14572C7.24124 8.11825 7.1425 8.06752 7.11161 8.0514C7.03607 8.01196 6.98281 7.97129 6.97141 7.96267C6.93586 7.9358 6.90994 7.91227 6.90514 7.90794C6.8886 7.89304 6.87631 7.8809 6.87457 7.87919C6.86766 7.8724 6.86369 7.86826 6.86688 7.87154C6.87158 7.87636 6.88567 7.89095 6.9192 7.92611C6.98543 7.99556 7.11987 8.13731 7.39076 8.4245L8.84565 7.05216ZM6.84645 6.47929L6.84496 6.48087L8.30086 7.85214L8.30234 7.85056L6.84645 6.47929ZM6.84412 6.48177L6.84105 6.48503L8.29863 7.8545L8.3017 7.85124L6.84412 6.48177ZM6.83769 6.48862C6.83458 6.49197 6.83036 6.49653 6.82555 6.50178L8.30124 7.85172C8.30086 7.85213 8.30094 7.85204 8.30199 7.85091L6.83769 6.48862ZM6.82558 6.50175C6.81564 6.51261 6.80573 6.52372 6.79585 6.53503L8.30277 7.85002C8.30277 7.85002 8.30265 7.85016 8.30239 7.85045C8.30214 7.85073 8.30175 7.85117 8.30121 7.85175L6.82558 6.50175ZM6.7965 6.53429C6.77645 6.55722 6.75561 6.58212 6.73419 6.60906L8.29965 7.85378C8.3015 7.85146 8.30238 7.85047 8.30212 7.85076L6.7965 6.53429ZM6.73417 6.60909C6.69107 6.66329 6.64507 6.72649 6.59842 6.79905L8.28085 7.88045C8.28959 7.86686 8.29627 7.85803 8.29968 7.85375L6.73417 6.60909ZM6.59843 6.79904C6.50472 6.94482 6.40936 7.12713 6.33065 7.34734L8.21396 8.02049C8.23791 7.95349 8.26352 7.90742 8.28085 7.88046L6.59843 6.79904ZM6.33066 7.34732C6.16894 7.79973 6.09898 8.35193 6.19247 8.98713L8.17115 8.69593C8.12385 8.3745 8.16619 8.15415 8.21396 8.02051L6.33066 7.34732ZM6.19247 8.98714C6.37315 10.2148 7.14076 11.6333 8.77264 13.3437L10.2197 11.9631C8.7205 10.3918 8.26582 9.33914 8.17115 8.69592L6.19247 8.98714ZM11.3043 10.8132C9.90578 9.34732 9.71315 8.5958 9.69131 8.44737L7.71261 8.73849C7.8204 9.47112 8.32576 10.5885 9.85727 12.1938L11.3043 10.8132ZM9.69129 8.44726C9.68662 8.41554 9.69053 8.41828 9.68754 8.44964C9.68607 8.46516 9.68301 8.48643 9.67699 8.51271C9.6707 8.54012 9.66234 8.56794 9.65249 8.59521L7.77132 7.91611C7.70406 8.10241 7.65876 8.37279 7.71262 8.7386L9.69129 8.44726ZM9.65492 8.58842C9.64462 8.61759 9.63114 8.6504 9.61341 8.68624C9.61266 8.68777 9.60725 8.69874 9.59993 8.7125C9.59897 8.71432 9.59499 8.72179 9.5897 8.73124C9.58819 8.73395 9.58013 8.7484 9.5691 8.76635C9.56187 8.77793 9.5391 8.81228 9.52309 8.83472C9.46986 8.90108 8.70079 9.24259 7.99994 8.93958C7.75738 8.52351 7.75211 7.98061 7.77067 7.91996C7.77843 7.89804 7.79121 7.86506 7.79585 7.85387C7.80337 7.83606 7.80979 7.82235 7.81118 7.81939C7.81557 7.80998 7.81916 7.8027 7.82008 7.80083C7.82456 7.79174 7.8282 7.78471 7.82896 7.78324C7.83471 7.77213 7.83983 7.76275 7.84393 7.75543C7.85274 7.7397 7.86128 7.7255 7.86934 7.71281L9.55713 8.78584C9.56848 8.76798 9.57916 8.75011 9.58916 8.73224C9.59387 8.72384 9.59935 8.71378 9.60525 8.70237C9.60605 8.70083 9.60972 8.69375 9.61421 8.68464C9.61513 8.68276 9.61872 8.67547 9.62312 8.66606C9.62451 8.6631 9.63093 8.64939 9.63845 8.63158C9.64309 8.62039 9.65587 8.58741 9.66363 8.56549C9.68219 8.50484 9.67692 7.96193 9.43436 7.54587C8.73351 7.24286 7.96444 7.58437 7.91121 7.65073C7.8952 7.67317 7.87243 7.70752 7.8652 7.7191C7.85417 7.73705 7.84611 7.7515 7.84459 7.75421C7.8393 7.76366 7.83532 7.77114 7.83436 7.77296C7.82701 7.78677 7.82153 7.79789 7.82065 7.79967C7.80195 7.83748 7.78452 7.87862 7.76889 7.9229L9.65492 8.58842ZM7.87481 7.70431C7.88807 7.68392 7.90163 7.66514 7.91491 7.64852L9.47711 8.89733C9.50742 8.85942 9.53185 8.82483 9.55166 8.79434L7.87481 7.70431ZM7.91093 7.65353C7.91887 7.64346 7.92444 7.637 7.92625 7.63492L9.43562 8.9471C9.44911 8.93157 9.46474 8.91304 9.48109 8.89232L7.91093 7.65353ZM7.93193 7.62844C7.93113 7.62935 7.93041 7.63016 7.92996 7.63067C7.92938 7.63134 7.92928 7.63144 7.92904 7.63172C7.92868 7.63213 7.92923 7.6315 7.93014 7.63048C7.93204 7.62835 7.93665 7.62322 7.9429 7.61656L9.39989 8.98667C9.40963 8.97631 9.41752 8.96755 9.42257 8.96189C9.42506 8.9591 9.42716 8.95673 9.42832 8.95541C9.42883 8.95483 9.4295 8.95407 9.42966 8.95389C9.42996 8.95355 9.42999 8.95351 9.42993 8.95358L7.93193 7.62844ZM7.9216 7.63994C7.92968 7.63079 7.93634 7.62365 7.94068 7.61907L9.39165 8.99555C9.39968 8.98709 9.40983 8.97616 9.42118 8.96329L7.9216 7.63994ZM7.93701 7.62297L7.93424 7.62592L9.39255 8.99461L9.39532 8.99166L7.93701 7.62297ZM7.94036 7.61945L7.93892 7.62096L9.385 9.00258L9.38643 9.00107L7.94036 7.61945ZM8.66196 8.31177C7.93642 7.62359 8.07184 7.50445 8.22646 7.41158C8.27592 7.38929 8.4167 7.34231 8.50906 7.32352C8.66791 7.29895 8.79668 7.31825 8.86737 7.33309C9.00386 7.36174 9.10122 7.41277 9.13106 7.42862C9.20489 7.46784 9.25698 7.50793 9.26802 7.51635C9.30267 7.54276 9.32797 7.56581 9.33264 7.57003C9.34877 7.58462 9.36075 7.59647 9.36243 7.59813C9.36914 7.60474 9.37297 7.60873 9.36976 7.60543C9.36497 7.60051 9.35081 7.58585 9.31727 7.55067C9.25101 7.48115 9.11654 7.33936 8.84565 7.05217L7.39076 8.42449C7.66218 8.71225 7.7996 8.85717 7.86963 8.93064C7.90424 8.96695 7.92434 8.98785 7.93677 9.00061C7.94216 9.00615 7.95034 9.01451 7.95925 9.02329C7.96203 9.02603 7.97457 9.03841 7.99098 9.05326C7.9958 9.05761 8.02116 9.08072 8.05586 9.10716C8.06692 9.11559 8.11902 9.15569 8.19285 9.19491C8.2227 9.21076 8.32006 9.2618 8.45655 9.29044C8.52724 9.30528 8.65601 9.32458 8.81485 9.30001C8.90722 9.28122 9.048 9.23425 9.09746 9.21196C9.25208 9.11908 9.3875 8.99995 8.66196 8.31177ZM8.77264 13.3437C10.3996 15.0489 11.7647 15.8697 12.969 16.0645L13.2884 14.0902C12.7151 13.9974 11.7248 13.5407 10.2197 11.9631L8.77264 13.3437ZM12.9692 16.0646C13.5962 16.1659 14.1441 16.09 14.5925 15.9139L13.8615 14.0523C13.7543 14.0944 13.5696 14.1356 13.2882 14.0902L12.9692 16.0646ZM14.5927 15.9138C14.8096 15.8286 14.9885 15.7258 15.1306 15.6254L13.9769 13.9918C13.9549 14.0073 13.9168 14.0305 13.8613 14.0524L14.5927 15.9138ZM15.1306 15.6254C15.2015 15.5754 15.263 15.5261 15.3154 15.4803L13.9982 13.9752C13.9951 13.978 13.988 13.9839 13.9769 13.9918L15.1306 15.6254ZM15.3124 15.4829C15.3401 15.4588 15.3652 15.4357 15.3878 15.4139L13.9999 13.9739C14.001 13.9729 14.0014 13.9724 14.0013 13.9726L15.3124 15.4829ZM15.3844 15.4172C15.3922 15.4097 15.4047 15.3977 15.4186 15.3837L13.9992 13.9747C14.0018 13.9721 14.0036 13.9703 14.0041 13.9698C14.0047 13.9693 14.0046 13.9694 14.0033 13.9706L15.3844 15.4172ZM15.4189 15.3834C15.4244 15.3779 15.4292 15.3729 15.4296 15.3725C15.4303 15.3718 15.4298 15.3723 15.429 15.3731C15.4282 15.374 15.4264 15.3758 15.4241 15.3781L14.0071 13.9667C14.0037 13.9701 14.0008 13.973 13.9989 13.975C13.9971 13.9768 13.9954 13.9785 13.995 13.979C13.9932 13.9808 13.9958 13.9782 13.9989 13.975L15.4189 15.3834ZM15.441 15.3606L15.4441 15.3574L13.9932 13.9809L13.9901 13.9841L15.441 15.3606ZM15.4203 15.3816L15.4219 15.3801L14.0185 13.9551L14.017 13.9567L15.4203 15.3816ZM14.7202 14.6676C15.4452 15.3564 15.5534 15.2205 15.6366 15.0679C15.6555 15.0215 15.6947 14.8919 15.7103 14.8078C15.7305 14.6654 15.7154 14.55 15.7035 14.4859C15.6805 14.3613 15.6386 14.2707 15.6246 14.2409C15.5909 14.1695 15.556 14.1184 15.548 14.1066C15.5243 14.0716 15.5033 14.0457 15.4992 14.0406C15.4855 14.0236 15.474 14.0105 15.4714 14.0076C15.4632 13.9982 15.4554 13.9896 15.4502 13.9839C15.4382 13.9707 15.4185 13.9494 15.3842 13.9127C15.3149 13.8385 15.1782 13.6928 14.9068 13.405L13.4518 14.7772C13.7227 15.0645 13.8565 15.207 13.922 15.2773C13.9552 15.3128 13.969 15.3279 13.9737 15.333C13.9768 15.3364 13.9731 15.3324 13.9669 15.3253C13.9654 15.3235 13.9544 15.3111 13.941 15.2944C13.937 15.2894 13.9161 15.2636 13.8924 15.2286C13.8844 15.2169 13.8495 15.1657 13.8158 15.0944C13.8017 15.0645 13.7599 14.974 13.7368 14.8494C13.725 14.7853 13.7099 14.6699 13.7301 14.5275C13.7457 14.4434 13.7849 14.3137 13.8038 14.2673C13.8869 14.1147 13.9952 13.9788 14.7202 14.6676ZM14.9067 13.4049C14.6358 13.1177 14.5021 12.9752 14.4365 12.905C14.4033 12.8694 14.3895 12.8544 14.3848 12.8493C14.3817 12.8459 14.3854 12.8499 14.3916 12.8569C14.3932 12.8587 14.4041 12.8712 14.4176 12.8878C14.4216 12.8928 14.4424 12.9186 14.4662 12.9536C14.4741 12.9653 14.509 13.0164 14.5427 13.0877C14.5567 13.1175 14.5986 13.2079 14.6217 13.3324C14.6335 13.3964 14.6487 13.5117 14.6287 13.654C14.6132 13.738 14.5741 13.8676 14.5552 13.914C14.4723 14.0667 14.3641 14.2027 13.6384 13.5147C12.9127 12.8267 12.8046 12.9627 12.7216 13.1154C12.7028 13.1617 12.6637 13.2914 12.6482 13.3754C12.6282 13.5177 12.6433 13.633 12.6552 13.697C12.6783 13.8215 12.7201 13.9119 12.7342 13.9417C12.7678 14.013 12.8028 14.0641 12.8107 14.0758C12.8344 14.1109 12.8554 14.1367 12.8595 14.1418C12.8732 14.1588 12.8847 14.1719 12.8872 14.1748C12.8954 14.1842 12.9033 14.1928 12.9085 14.1985C12.9205 14.2117 12.9402 14.233 12.9745 14.2697C13.0438 14.3439 13.1805 14.4896 13.4519 14.7773L14.9067 13.4049ZM14.3638 14.203L14.3653 14.2015L12.9145 12.8248L12.913 12.8264L14.3638 14.203ZM14.3653 14.2014L14.3681 14.1985L12.9172 12.822L12.9144 12.8249L14.3653 14.2014ZM14.3288 14.2377C14.3425 14.2248 14.3535 14.2137 14.361 14.206C14.3647 14.2022 14.3678 14.199 14.3698 14.1969C14.3717 14.1949 14.3734 14.1932 14.3735 14.193L12.9226 12.8165C12.9208 12.8184 12.9249 12.814 12.9298 12.809C12.9355 12.8032 12.9447 12.7939 12.9565 12.7828L14.3288 14.2377ZM14.353 14.214C14.351 14.216 14.3498 14.2172 14.3511 14.2159C14.3514 14.2156 14.353 14.214 14.3542 14.2128C14.3557 14.2114 14.3578 14.2093 14.3604 14.2068L12.9561 12.7828C12.957 12.7818 12.9575 12.7813 12.9574 12.7815C12.9569 12.7819 12.9569 12.7819 12.9555 12.7833C12.9534 12.7853 12.9487 12.79 12.9431 12.7955L14.353 14.214ZM14.3478 14.219C14.3477 14.2191 14.3471 14.2197 14.3461 14.2206C14.3451 14.2215 14.3436 14.223 14.3415 14.2249C14.3377 14.2283 14.3302 14.235 14.3201 14.2436L13.0308 12.7147C13.0024 12.7386 12.9794 12.7603 12.9687 12.7706L14.3478 14.219ZM14.3369 14.2291C14.3281 14.2369 14.3188 14.2446 14.3092 14.2522C14.2993 14.26 14.2908 14.2663 14.2852 14.2704L13.11 12.6521C13.0866 12.6691 13.0532 12.6945 13.014 12.7292L14.3369 14.2291ZM14.2726 14.2795C14.2594 14.2887 14.2438 14.2991 14.2259 14.3101C14.2232 14.3117 14.2027 14.3245 14.1754 14.3391C14.1736 14.34 14.1544 14.3504 14.1296 14.3621C14.1222 14.3656 14.1084 14.372 14.0908 14.3794C14.0814 14.3833 14.0356 14.4028 13.9746 14.42C13.9366 14.4299 13.8262 14.4499 13.7535 14.4562C13.5869 14.4507 13.07 14.2313 12.8176 13.9216C12.7084 13.5567 12.7983 13.0322 12.8751 12.8973C12.9157 12.8414 12.986 12.7609 13.0127 12.7343C13.0572 12.6919 13.0959 12.6631 13.1042 12.6569C13.1192 12.6456 13.1315 12.6371 13.1381 12.6326C13.1517 12.6233 13.1626 12.6163 13.1673 12.6134C13.1776 12.6068 13.1859 12.6018 13.1893 12.5998C13.2028 12.5917 13.2135 12.5857 13.2175 12.5835C13.2579 12.5611 13.2942 12.5446 13.3253 12.5324L14.0548 14.3947C14.101 14.3766 14.1459 14.3556 14.1887 14.3319C14.193 14.3295 14.2039 14.3234 14.2175 14.3152C14.2209 14.3132 14.2292 14.3082 14.2396 14.3016C14.2442 14.2986 14.2551 14.2917 14.2687 14.2824C14.2753 14.2778 14.2876 14.2693 14.3027 14.258C14.3109 14.2518 14.3497 14.2231 14.3941 14.1806C14.4209 14.1541 14.4911 14.0736 14.5318 14.0177C14.6085 13.8827 14.6985 13.3582 14.5892 12.9934C14.3368 12.6836 13.8199 12.4643 13.6533 12.4587C13.5807 12.465 13.4703 12.485 13.4322 12.4949C13.3713 12.5121 13.3254 12.5316 13.316 12.5356C13.2984 12.543 13.2846 12.5494 13.2773 12.5528C13.2524 12.5645 13.2332 12.5749 13.2313 12.5759C13.2039 12.5906 13.1828 12.6036 13.1793 12.6058C13.1595 12.618 13.1406 12.6305 13.1226 12.6431L14.2726 14.2795ZM13.3254 12.5324C13.3528 12.5217 13.3825 12.5118 13.4134 12.504C13.443 12.4966 13.4683 12.4925 13.4886 12.4904C13.5297 12.4861 13.5429 12.4907 13.5219 12.4873L13.2021 14.4616C13.578 14.5225 13.8599 14.4709 14.0546 14.3947L13.3254 12.5324ZM13.5214 12.4873C13.4132 12.4698 12.708 12.2843 11.3043 10.8132L9.8573 12.1938C11.3828 13.7926 12.4631 14.3423 13.2027 14.4617L13.5214 12.4873ZM8.71091 1.67513C7.33314 -0.264886 4.54183 -0.634428 2.82263 1.16751L4.26968 2.54811C5.04738 1.73298 6.36733 1.82927 7.08029 2.83318L8.71091 1.67513ZM5.35436 3.69801C5.43754 3.61083 5.66916 3.55205 5.84881 3.80499L7.47942 2.64693C6.6199 1.43668 4.91468 1.26155 3.90731 2.31742L5.35436 3.69801ZM3.53867 5.76072C3.53695 5.72876 3.54488 5.59457 3.74462 5.38523L2.29759 4.00461C1.82062 4.50452 1.50295 5.15203 1.54157 5.8684L3.53867 5.76072ZM1.2129 2.85471C0.526337 3.57432 -0.0650474 4.64829 0.00570548 5.96041L2.0028 5.85273C1.96934 5.23211 2.24439 4.67087 2.65995 4.23532L1.2129 2.85471ZM16.9135 18.1625C16.83 18.2501 16.7627 18.2981 16.7175 18.3231C16.6741 18.3471 16.653 18.3491 16.6516 18.3492L16.8471 20.3396C17.4574 20.2797 17.9678 19.9549 18.3607 19.543L16.9135 18.1625ZM16.99 21.9542C18.0514 21.8498 18.8768 21.2888 19.4453 20.6929L17.9982 19.3124C17.6488 19.6786 17.2396 19.92 16.7943 19.9638L16.99 21.9542ZM9.67818 8.69527C11.0386 7.26935 11.1148 5.05996 10.0041 3.49606L8.37349 4.65412C8.96401 5.48561 8.89004 6.62405 8.23113 7.31468L9.67818 8.69527ZM7.14199 5.62594C7.29302 5.8386 7.23839 6.06846 7.14649 6.16478L8.59354 7.54538C9.38076 6.72027 9.4492 5.42056 8.7726 4.46788L7.14199 5.62594ZM18.2196 15.9618C18.3528 16.0382 18.4316 16.1635 18.4532 16.3068C18.4762 16.4589 18.428 16.5752 18.3705 16.6355L19.8176 18.016C20.8662 16.9168 20.6053 15.0239 19.214 14.2266L18.2196 15.9618ZM20.9022 19.166C22.7457 17.2337 22.1634 14.0709 19.9487 12.8019L18.9544 14.5373C20.0954 15.191 20.3608 16.8361 19.4551 17.7854L20.9022 19.166ZM15.9123 14.8668C15.9819 14.7939 16.1103 14.7531 16.2604 14.8391L17.2546 13.1037C16.3227 12.5699 15.1833 12.7336 14.4653 13.4862L15.9123 14.8668ZM17.9894 11.6792C16.49 10.8199 14.6047 11.0534 13.3806 12.3362L14.8275 13.7169C15.3987 13.1183 16.2718 13 16.995 13.4144L17.9894 11.6792Z" fill="#005BBE" mask="url(#path-1-outside-1_122_318)"/>
</svg>
