<svg width="40" height="40" viewBox="0 0 40 40" fill="none" xmlns="http://www.w3.org/2000/svg">
<g clip-path="url(#clip0_131_1407)">
<path d="M20 0C8.95422 0 0 8.95422 0 20C0 31.0458 8.95422 40 20 40C31.0458 40 40 31.0458 40 20C40 8.95422 31.0458 0 20 0Z" fill="#40B3E0"/>
<path d="M29.7326 11.5048L26.1604 29.5152C26.1604 29.5152 25.6608 30.7643 24.2869 30.1648L16.0435 23.8448L13.046 22.396L8.00006 20.6973C8.00006 20.6973 7.22569 20.4226 7.15069 19.8231C7.07584 19.2235 8.02506 18.8988 8.02506 18.8988L28.0838 11.0301C28.0838 11.0301 29.7326 10.3057 29.7326 11.5048Z" fill="white"/>
<path d="M15.4088 29.3131C15.4088 29.3131 15.1682 29.2906 14.8684 28.3412C14.5687 27.392 13.0449 22.3961 13.0449 22.3961L25.1601 14.7023C25.1601 14.7023 25.8596 14.2776 25.8346 14.7023C25.8346 14.7023 25.9595 14.7771 25.5848 15.1268C25.2101 15.4767 16.0674 23.695 16.0674 23.695" fill="#D2E5F1"/>
<path d="M19.2045 26.268L15.9439 29.2409C15.9439 29.2409 15.6891 29.4343 15.4102 29.313L16.0345 23.791" fill="#B5CFE4"/>
</g>
<defs>
<clipPath id="clip0_131_1407">
<rect width="40" height="40" fill="white"/>
</clipPath>
</defs>
</svg>
