<svg width="40" height="40" viewBox="0 0 40 40" fill="none" xmlns="http://www.w3.org/2000/svg">
<path d="M20 0C8.95422 0 0 8.95422 0 20C0 31.0458 8.95422 40 20 40C31.0458 40 40 31.0458 40 20C40 8.95422 31.0458 0 20 0Z" fill="#0077FF"/>
<path d="M20.8679 28.0219C11.2939 28.0219 5.83301 22.1314 5.60547 12.3296H10.4012C10.5588 19.5239 14.0943 22.5712 16.8948 23.1995V12.3296H21.4105V18.5343C24.1759 18.2672 27.0814 15.4398 28.0616 12.3296H32.5773C32.2079 13.9426 31.4717 15.4699 30.4146 16.8159C29.3575 18.1619 28.0023 19.2977 26.4338 20.1522C28.1846 20.933 29.7311 22.0381 30.9711 23.3946C32.2111 24.7512 33.1165 26.3283 33.6274 28.0219H28.6567C28.198 26.5509 27.2657 25.2341 25.9767 24.2365C24.6877 23.2389 23.0992 22.605 21.4105 22.4141V28.0219H20.8679Z" fill="white"/>
</svg>
